<svg width="60" height="60" viewBox="0 0 74 60" fill="none" xmlns="http://www.w3.org/2000/svg">
<ellipse cx="12.65" cy="39.5656" rx="5.55" ry="5.12295" fill="#ffffff"/>
<ellipse cx="12.65" cy="51.8607" rx="9.25" ry="7.17213" fill="#ffffff"/>
<ellipse cx="62.125" cy="7.02459" rx="5.55" ry="5.12295" fill="#ffffff"/>
<ellipse cx="62.125" cy="19.3197" rx="9.25" ry="7.17213" fill="#ffffff"/>
<path opacity="1" d="M31.0781 50.5977C31.0781 47.8633 31.7539 45.7227 33.1055 44.1758C34.4648 42.6211 36.4141 41.8438 38.9531 41.8438C40.4375 41.8438 41.6641 42.0977 42.6328 42.6055C43.6016 43.1055 44.2969 43.793 44.7188 44.668C44.9375 45.1211 44.9023 45.4336 44.6133 45.6055L43.6875 46.1445C43.375 46.3242 43.0977 46.1758 42.8555 45.6992C42.5977 45.207 42.1758 44.7461 41.5898 44.3164C41.0039 43.8867 40.1641 43.6719 39.0703 43.6719C37.1172 43.6719 35.6953 44.2812 34.8047 45.5C33.9219 46.7109 33.4805 48.4102 33.4805 50.5977C33.4805 52.7852 33.9219 54.4883 34.8047 55.707C35.6953 56.918 37.1172 57.5234 39.0703 57.5234C40.1953 57.5234 41.0938 57.2656 41.7656 56.75C42.4453 56.2344 42.9375 55.6953 43.2422 55.1328C43.4844 54.6797 43.7656 54.543 44.0859 54.7227L45.0586 55.2734C45.3398 55.4375 45.3633 55.75 45.1289 56.2109C44.668 57.1094 43.918 57.8594 42.8789 58.4609C41.8398 59.0547 40.5312 59.3516 38.9531 59.3516C36.4141 59.3516 34.4648 58.5781 33.1055 57.0312C31.7539 55.4766 31.0781 53.332 31.0781 50.5977ZM47.2617 42.9688C47.0664 42.4531 47.1719 42.1953 47.5781 42.1953H48.7734C49.1953 42.1953 49.4766 42.3867 49.6172 42.7695L53.4258 53.2578C53.5898 53.7188 53.793 54.3398 54.0352 55.1211C54.2852 55.8945 54.4531 56.5117 54.5391 56.9727H54.5859C54.6719 56.5117 54.8359 55.8945 55.0781 55.1211C55.3281 54.3398 55.5352 53.7188 55.6992 53.2578L59.5078 42.7695C59.6484 42.3867 59.9297 42.1953 60.3516 42.1953H61.5469C61.9531 42.1953 62.0586 42.4531 61.8633 42.9688L56.1562 58.2852C55.9766 58.7617 55.7188 59 55.3828 59H53.7422C53.4062 59 53.1484 58.7617 52.9688 58.2852L47.2617 42.9688Z" fill="#ffffff"/>
<path opacity="1" d="M0.832031 7.96875C0.636719 7.45312 0.742188 7.19531 1.14844 7.19531H2.34375C2.76562 7.19531 3.04688 7.38672 3.1875 7.76953L6.99609 18.2578C7.16016 18.7188 7.36328 19.3398 7.60547 20.1211C7.85547 20.8945 8.02344 21.5117 8.10938 21.9727H8.15625C8.24219 21.5117 8.40625 20.8945 8.64844 20.1211C8.89844 19.3398 9.10547 18.7188 9.26953 18.2578L13.0781 7.76953C13.2188 7.38672 13.5 7.19531 13.9219 7.19531H15.1172C15.5234 7.19531 15.6289 7.45312 15.4336 7.96875L9.72656 23.2852C9.54688 23.7617 9.28906 24 8.95312 24H7.3125C6.97656 24 6.71875 23.7617 6.53906 23.2852L0.832031 7.96875ZM16.0664 17.8477C16.0664 15.9102 16.5508 14.3672 17.5195 13.2188C18.4883 12.0703 19.875 11.4961 21.6797 11.4961C23.1797 11.4961 24.4219 12.0234 25.4062 13.0781C26.3984 14.125 26.8945 15.8008 26.8945 18.1055C26.8945 18.457 26.7344 18.6328 26.4141 18.6328H18.2461C18.3789 20.1406 18.7852 21.1914 19.4648 21.7852C20.1445 22.3711 20.9141 22.6641 21.7734 22.6641C22.6797 22.6641 23.375 22.5117 23.8594 22.207C24.3438 21.9023 24.6992 21.6016 24.9258 21.3047C25.1758 20.9766 25.418 20.9141 25.6523 21.1172L26.3438 21.7148C26.5234 21.8711 26.5234 22.0859 26.3438 22.3594C26.1953 22.5859 25.7695 22.9492 25.0664 23.4492C24.3711 23.9492 23.2734 24.1992 21.7734 24.1992C19.8203 24.1992 18.3789 23.625 17.4492 22.4766C16.5273 21.3281 16.0664 19.7852 16.0664 17.8477ZM18.1992 17.1094H24.8203C24.7891 16.0156 24.5078 15.0586 23.9766 14.2383C23.4453 13.4102 22.6641 12.9961 21.6328 12.9961C20.7266 12.9961 19.957 13.3008 19.3242 13.9102C18.6914 14.5117 18.3164 15.5781 18.1992 17.1094ZM30.1289 24C29.7773 24 29.6016 23.8242 29.6016 23.4727V12.2227C29.6016 11.8711 29.7773 11.6953 30.1289 11.6953H31.1133C31.4648 11.6953 31.6406 11.8711 31.6406 12.2227V13.1602H31.6875C32.1953 12.5977 32.7461 12.1797 33.3398 11.9062C33.9336 11.6328 34.5039 11.4961 35.0508 11.4961C36.0586 11.4961 36.832 11.75 37.3711 12.2578C37.918 12.7578 38.2695 13.2617 38.4258 13.7695H38.4727C38.9023 13.1289 39.4453 12.5898 40.1016 12.1523C40.7578 11.7148 41.457 11.4961 42.1992 11.4961C43.4414 11.4961 44.3789 11.8984 45.0117 12.7031C45.6445 13.5 45.9609 14.5938 45.9609 15.9844V23.4727C45.9609 23.8242 45.7852 24 45.4336 24H44.4258C44.0742 24 43.8984 23.8242 43.8984 23.4727V16.6641C43.8984 15.1328 43.707 14.1445 43.3242 13.6992C42.9414 13.2461 42.3516 13.0195 41.5547 13.0195C40.7734 13.0195 40.1211 13.3555 39.5977 14.0273C39.0742 14.6914 38.8125 15.6953 38.8125 17.0391V23.4727C38.8125 23.8242 38.6367 24 38.2852 24H37.2773C36.9258 24 36.75 23.8242 36.75 23.4727V16.6641C36.75 15.1328 36.5586 14.1445 36.1758 13.6992C35.793 13.2461 35.2031 13.0195 34.4062 13.0195C33.625 13.0195 32.9727 13.3242 32.4492 13.9336C31.9258 14.5352 31.6641 15.5703 31.6641 17.0391V23.4727C31.6641 23.8242 31.4883 24 31.1367 24H30.1289Z" fill="#ffffff"/>
</svg>
